<svg width="243" height="27" viewBox="0 0 243 27" fill="none" xmlns="http://www.w3.org/2000/svg">
<path d="M13.6475 17.2842L20.0195 7.51855C20.7113 7.55924 21.3664 7.61214 21.9849 7.67725C22.6034 7.73421 23.1445 7.79525 23.6084 7.86035C24.1536 7.93359 24.6582 8.00684 25.1221 8.08008V10.8877L22.8516 10.375V22.9727L25.1221 22.46V25.4873C24.2594 25.6582 23.409 25.7843 22.5708 25.8657C21.7326 25.9471 20.8822 26.0081 20.0195 26.0488V12.6455L13.6475 22.5332L7.17773 12.6211V26.0488C6.486 26.0081 5.83089 25.9593 5.2124 25.9023C4.59391 25.8454 4.05273 25.7843 3.58887 25.7192C3.04362 25.646 2.53906 25.5687 2.0752 25.4873V22.46L4.3457 22.9727V10.3506L2.0752 10.8633V8.05566C2.53906 7.98242 3.04362 7.90918 3.58887 7.83594C4.05273 7.77083 4.59391 7.7098 5.2124 7.65283C5.83089 7.58773 6.486 7.53483 7.17773 7.49414L13.6475 17.2842ZM37.6221 7.4209C38.8753 7.4209 40.2018 7.46566 41.6016 7.55518C43.0094 7.64469 44.4743 7.81966 45.9961 8.08008V11.1807C45.3125 10.9854 44.6208 10.8267 43.9209 10.7046C43.221 10.5744 42.5171 10.4727 41.8091 10.3994C41.1092 10.3262 40.4093 10.2733 39.7095 10.2407C39.0096 10.2082 38.3138 10.1878 37.6221 10.1797C37.2884 10.1797 36.9181 10.1878 36.5112 10.2041C36.1125 10.2122 35.6852 10.2285 35.2295 10.2529C34.7819 10.2773 34.3099 10.314 33.8135 10.3628C33.3171 10.4116 32.8125 10.4727 32.2998 10.5459V14.9893H42.9688V17.9922H32.2998V22.8994C33.0892 23.0133 33.9111 23.0988 34.7656 23.1558C35.6201 23.2127 36.5723 23.2412 37.6221 23.2412C39.0381 23.2412 40.446 23.172 41.8457 23.0337C43.2454 22.8953 44.6289 22.6309 45.9961 22.2402V25.3408C44.4743 25.6012 43.0135 25.7762 41.6138 25.8657C40.214 25.9552 38.8997 26 37.6709 26C36.4176 26 35.0871 25.9552 33.6792 25.8657C32.2795 25.7762 30.8105 25.6012 29.2725 25.3408V8.08008C30.8105 7.81966 32.2795 7.64469 33.6792 7.55518C35.0789 7.46566 36.3932 7.4209 37.6221 7.4209ZM57.7393 7.39648C58.9681 7.39648 60.1278 7.50635 61.2183 7.72607C62.3088 7.9458 63.2609 8.25098 64.0747 8.6416C64.8966 9.03223 65.5477 9.50016 66.0278 10.0454C66.508 10.5907 66.748 11.1888 66.748 11.8398V13.8174H63.5742V12.7676C63.5742 12.4176 63.4399 12.084 63.1714 11.7666C62.9028 11.4492 62.5163 11.1685 62.0117 10.9243C61.5153 10.6802 60.9049 10.4889 60.1807 10.3506C59.4645 10.2041 58.6507 10.1309 57.7393 10.1309C56.8604 10.1309 56.0628 10.2 55.3467 10.3384C54.6305 10.4767 54.0161 10.6639 53.5034 10.8999C52.9907 11.1359 52.596 11.4167 52.3193 11.7422C52.0426 12.0596 51.9043 12.4014 51.9043 12.7676V20.6777C51.9043 21.0358 52.0426 21.3776 52.3193 21.7031C52.596 22.0205 52.9907 22.3013 53.5034 22.5454C54.0161 22.7814 54.6305 22.9686 55.3467 23.1069C56.0628 23.2453 56.8604 23.3145 57.7393 23.3145C58.6507 23.3145 59.4645 23.2453 60.1807 23.1069C60.9049 22.9604 61.5153 22.7651 62.0117 22.521C62.5163 22.2769 62.9028 21.9961 63.1714 21.6787C63.4399 21.3613 63.5742 21.0277 63.5742 20.6777V18.9199C62.8174 18.9199 62.1379 18.9403 61.5356 18.981C60.9416 19.0216 60.4329 19.0623 60.0098 19.103C59.5133 19.16 59.0739 19.221 58.6914 19.2861L59.0088 16.332C60.2539 16.2344 61.4258 16.1855 62.5244 16.1855C63.9974 16.1855 65.4053 16.2588 66.748 16.4053V21.6055C66.748 22.2565 66.508 22.8547 66.0278 23.3999C65.5477 23.937 64.8966 24.4009 64.0747 24.7915C63.2609 25.1821 62.3088 25.4873 61.2183 25.707C60.1278 25.9186 58.9681 26.0244 57.7393 26.0244C56.5104 26.0244 55.3507 25.9186 54.2603 25.707C53.1698 25.4873 52.2135 25.1821 51.3916 24.7915C50.5778 24.4009 49.9308 23.937 49.4507 23.3999C48.9705 22.8547 48.7305 22.2565 48.7305 21.6055V11.8398C48.7305 11.1888 48.9705 10.5907 49.4507 10.0454C49.9308 9.50016 50.5778 9.03223 51.3916 8.6416C52.2135 8.25098 53.1698 7.9458 54.2603 7.72607C55.3507 7.50635 56.5104 7.39648 57.7393 7.39648ZM78.5889 6.93262C79.0934 6.93262 79.6061 6.98551 80.127 7.09131C80.6478 7.18896 81.1117 7.32324 81.5186 7.49414C82.2347 8.7474 82.8857 10.0251 83.4717 11.3271C84.0658 12.6211 84.5947 13.9557 85.0586 15.3311C85.376 15.3717 85.6974 15.4165 86.0229 15.4653C86.3485 15.506 86.6781 15.5508 87.0117 15.5996V18.7246L85.9619 18.4316C86.2549 19.6442 86.5031 20.8812 86.7065 22.1426C86.91 23.404 87.0605 24.6898 87.1582 26H84.2529C84.1309 24.6003 83.9274 23.2168 83.6426 21.8496C83.3577 20.4824 83.0322 19.1722 82.666 17.9189C81.8766 17.8538 81.1239 17.805 80.4077 17.7725C79.6997 17.7399 79.0934 17.7236 78.5889 17.7236C77.9134 17.7236 77.242 17.7358 76.5747 17.7603C75.9074 17.7847 75.236 17.8294 74.5605 17.8945C74.1943 19.1478 73.8647 20.458 73.5718 21.8252C73.2869 23.1924 73.0876 24.584 72.9736 26H70.0684C70.1579 24.6898 70.3003 23.408 70.4956 22.1548C70.6991 20.9015 70.9473 19.6686 71.2402 18.4561L70.2881 18.7246V15.5996L72.168 15.3311C72.6237 13.9557 73.1445 12.6211 73.7305 11.3271C74.3245 10.0251 74.9837 8.7474 75.708 7.49414C76.1149 7.32324 76.5747 7.18896 77.0874 7.09131C77.6001 6.98551 78.1006 6.93262 78.5889 6.93262ZM78.5889 14.9648C79.0771 14.9648 79.5817 14.973 80.1025 14.9893C80.6234 14.9974 81.1605 15.0218 81.7139 15.0625C81.2988 13.9313 80.8879 12.9507 80.481 12.1206C80.0822 11.2824 79.7363 10.6354 79.4434 10.1797C79.2969 10.1146 79.1585 10.0698 79.0283 10.0454C78.8981 10.021 78.7516 10.0088 78.5889 10.0088C78.3285 10.0088 78.0599 10.0658 77.7832 10.1797C77.4902 10.6354 77.1403 11.2824 76.7334 12.1206C76.3265 12.9507 75.9196 13.9313 75.5127 15.0625C76.0498 15.0218 76.5747 14.9974 77.0874 14.9893C77.6082 14.973 78.1087 14.9648 78.5889 14.9648ZM98.6816 7.22559C99.9349 7.22559 101.05 7.33545 102.026 7.55518C103.011 7.7749 103.841 8.08008 104.517 8.4707C105.2 8.86133 105.721 9.33333 106.079 9.88672C106.437 10.432 106.616 11.0342 106.616 11.6934V13.4756C106.616 14.1755 106.478 14.741 106.201 15.1724C105.933 15.6037 105.558 15.9495 105.078 16.21C105.477 16.3239 105.843 16.4704 106.177 16.6494C106.519 16.8285 106.807 17.0482 107.043 17.3086C107.288 17.5609 107.475 17.8579 107.605 18.1997C107.743 18.5334 107.812 18.9199 107.812 19.3594V21.752C107.812 22.4111 107.572 23.0174 107.092 23.5708C106.612 24.116 105.957 24.5881 105.127 24.9868C104.297 25.3856 103.328 25.6948 102.222 25.9146C101.115 26.1343 99.9349 26.2441 98.6816 26.2441C97.9818 26.2441 97.2656 26.2157 96.5332 26.1587C95.8008 26.1099 95.0887 26.0407 94.397 25.9512C93.7134 25.8617 93.0705 25.7599 92.4683 25.646C91.866 25.5321 91.3493 25.4141 90.918 25.292V8.15332C91.3493 8.03125 91.866 7.91732 92.4683 7.81152C93.0705 7.69759 93.7134 7.59993 94.397 7.51855C95.0887 7.42904 95.8008 7.35986 96.5332 7.31104C97.2656 7.25407 97.9818 7.22559 98.6816 7.22559ZM98.584 17.8945C98.1445 17.8945 97.7051 17.8986 97.2656 17.9067C96.8262 17.9067 96.3989 17.9189 95.9839 17.9434C95.577 17.9596 95.1864 17.9881 94.812 18.0288C94.4377 18.0695 94.0999 18.1224 93.7988 18.1875V22.8262C93.9616 22.8831 94.1691 22.9482 94.4214 23.0215C94.6818 23.0947 95.0073 23.1639 95.3979 23.229C95.7886 23.2941 96.2565 23.3511 96.8018 23.3999C97.347 23.4406 97.9899 23.4609 98.7305 23.4609C99.6419 23.4609 100.46 23.3877 101.184 23.2412C101.917 23.0947 102.531 22.8994 103.027 22.6553C103.532 22.4111 103.918 22.1304 104.187 21.813C104.456 21.4875 104.59 21.1497 104.59 20.7998V19.75C104.59 19.3675 104.419 19.0542 104.077 18.8101C103.735 18.5659 103.284 18.3787 102.722 18.2485C102.161 18.1102 101.518 18.0166 100.793 17.9678C100.077 17.9189 99.3408 17.8945 98.584 17.8945ZM93.7988 14.8672C94.3034 14.9648 94.8771 15.0299 95.52 15.0625C96.1711 15.0951 96.9076 15.1113 97.7295 15.1113C98.4375 15.1113 99.1414 15.0869 99.8413 15.0381C100.541 14.9811 101.172 14.8916 101.733 14.7695C102.295 14.6393 102.751 14.4684 103.101 14.2568C103.451 14.0371 103.63 13.7604 103.638 13.4268V12.6455C103.638 12.2956 103.552 11.9619 103.381 11.6445C103.219 11.319 102.942 11.0342 102.551 10.79C102.169 10.5459 101.664 10.3506 101.038 10.2041C100.411 10.0576 99.6419 9.98438 98.7305 9.98438C97.9899 9.98438 97.347 10.0088 96.8018 10.0576C96.2565 10.0983 95.7886 10.1512 95.3979 10.2163C95.0073 10.2814 94.6818 10.3506 94.4214 10.4238C94.1691 10.4971 93.9616 10.5622 93.7988 10.6191V14.8672ZM119.751 7.10352C120.565 7.10352 121.354 7.15234 122.119 7.25C122.884 7.34766 123.6 7.49007 124.268 7.67725C124.935 7.85628 125.545 8.07601 126.099 8.33643C126.652 8.5887 127.124 8.8776 127.515 9.20312C127.905 9.52865 128.21 9.88672 128.43 10.2773C128.65 10.6598 128.76 11.0667 128.76 11.498V21.9717C128.76 22.403 128.65 22.814 128.43 23.2046C128.21 23.5871 127.905 23.9411 127.515 24.2666C127.124 24.5921 126.652 24.8851 126.099 25.1455C125.545 25.3978 124.935 25.6175 124.268 25.8047C123.6 25.9837 122.884 26.1221 122.119 26.2197C121.354 26.3174 120.565 26.3662 119.751 26.3662C118.937 26.3662 118.148 26.3174 117.383 26.2197C116.626 26.1221 115.914 25.9837 115.247 25.8047C114.587 25.6175 113.981 25.3978 113.428 25.1455C112.874 24.8851 112.398 24.5921 112 24.2666C111.609 23.9411 111.304 23.5871 111.084 23.2046C110.872 22.814 110.767 22.403 110.767 21.9717V11.498C110.767 11.0667 110.872 10.6598 111.084 10.2773C111.304 9.88672 111.609 9.52865 112 9.20312C112.398 8.8776 112.874 8.5887 113.428 8.33643C113.981 8.07601 114.587 7.85628 115.247 7.67725C115.914 7.49007 116.626 7.34766 117.383 7.25C118.148 7.15234 118.937 7.10352 119.751 7.10352ZM125.562 12.4258C125.562 12.0758 125.427 11.7463 125.159 11.437C124.89 11.1196 124.504 10.8429 123.999 10.6069C123.503 10.3628 122.896 10.1715 122.18 10.0332C121.464 9.88672 120.654 9.81348 119.751 9.81348C118.88 9.81348 118.091 9.88265 117.383 10.021C116.675 10.1512 116.064 10.3343 115.552 10.5703C115.047 10.8063 114.657 11.083 114.38 11.4004C114.103 11.7178 113.965 12.0596 113.965 12.4258V21.0439C113.965 21.402 114.103 21.7397 114.38 22.0571C114.657 22.3745 115.047 22.6512 115.552 22.8872C116.064 23.1232 116.675 23.3104 117.383 23.4487C118.091 23.5871 118.88 23.6562 119.751 23.6562C120.654 23.6562 121.464 23.5871 122.18 23.4487C122.896 23.3022 123.503 23.1069 123.999 22.8628C124.504 22.6187 124.89 22.342 125.159 22.0327C125.427 21.7153 125.562 21.3857 125.562 21.0439V12.4258ZM140.161 14.0127L143.799 7.54297C144.499 7.57552 145.158 7.62435 145.776 7.68945C146.395 7.74642 146.944 7.80745 147.424 7.87256C147.978 7.9458 148.494 8.02311 148.975 8.10449V11.2051C148.812 11.1481 148.592 11.0871 148.315 11.022C148.047 10.9569 147.746 10.8918 147.412 10.8267C147.078 10.7534 146.729 10.6842 146.362 10.6191C145.996 10.554 145.638 10.4889 145.288 10.4238L141.699 16.7959L145.288 23.168C145.638 23.111 145.996 23.05 146.362 22.9849C146.729 22.9116 147.078 22.8384 147.412 22.7651C147.746 22.6919 148.047 22.6227 148.315 22.5576C148.592 22.4925 148.812 22.4355 148.975 22.3867V25.4873C148.494 25.5687 147.978 25.646 147.424 25.7192C146.944 25.7843 146.395 25.8494 145.776 25.9146C145.158 25.9715 144.499 26.0163 143.799 26.0488L140.161 19.5791L136.499 26.0488C135.799 26.0163 135.136 25.9715 134.509 25.9146C133.891 25.8494 133.346 25.7843 132.874 25.7192C132.32 25.646 131.812 25.5687 131.348 25.4873V22.3867C131.494 22.4355 131.702 22.4925 131.97 22.5576C132.239 22.6227 132.54 22.6919 132.874 22.7651C133.207 22.8384 133.557 22.9116 133.923 22.9849C134.298 23.05 134.66 23.111 135.01 23.168L138.574 16.7959L135.01 10.4238C134.66 10.4889 134.298 10.554 133.923 10.6191C133.557 10.6842 133.207 10.7534 132.874 10.8267C132.54 10.8918 132.239 10.9569 131.97 11.022C131.702 11.0871 131.494 11.1481 131.348 11.2051V8.10449C131.812 8.02311 132.32 7.9458 132.874 7.87256C133.346 7.80745 133.891 7.74642 134.509 7.68945C135.136 7.62435 135.799 7.57552 136.499 7.54297L140.161 14.0127ZM170.142 7.44531C171.403 7.44531 172.729 7.49007 174.121 7.57959C175.513 7.66911 176.978 7.84408 178.516 8.10449V11.2051C177.97 11.0505 177.348 10.904 176.648 10.7656C176.046 10.6517 175.321 10.5418 174.475 10.436C173.629 10.3302 172.673 10.2611 171.606 10.2285V26.0244H168.701V10.2285C167.635 10.2611 166.679 10.3302 165.833 10.436C164.986 10.5418 164.262 10.6517 163.66 10.7656C162.96 10.904 162.337 11.0505 161.792 11.2051V8.10449C163.314 7.84408 164.779 7.66911 166.187 7.57959C167.594 7.49007 168.913 7.44531 170.142 7.44531ZM189.429 7.4209C190.682 7.4209 192.008 7.46566 193.408 7.55518C194.816 7.64469 196.281 7.81966 197.803 8.08008V11.1807C197.119 10.9854 196.427 10.8267 195.728 10.7046C195.028 10.5744 194.324 10.4727 193.616 10.3994C192.916 10.3262 192.216 10.2733 191.516 10.2407C190.816 10.2082 190.12 10.1878 189.429 10.1797C189.095 10.1797 188.725 10.1878 188.318 10.2041C187.919 10.2122 187.492 10.2285 187.036 10.2529C186.589 10.2773 186.117 10.314 185.62 10.3628C185.124 10.4116 184.619 10.4727 184.106 10.5459V14.9893H194.775V17.9922H184.106V22.8994C184.896 23.0133 185.718 23.0988 186.572 23.1558C187.427 23.2127 188.379 23.2412 189.429 23.2412C190.845 23.2412 192.253 23.172 193.652 23.0337C195.052 22.8953 196.436 22.6309 197.803 22.2402V25.3408C196.281 25.6012 194.82 25.7762 193.42 25.8657C192.021 25.9552 190.706 26 189.478 26C188.224 26 186.894 25.9552 185.486 25.8657C184.086 25.7762 182.617 25.6012 181.079 25.3408V8.08008C182.617 7.81966 184.086 7.64469 185.486 7.55518C186.886 7.46566 188.2 7.4209 189.429 7.4209ZM209.326 7.0791C210.555 7.0791 211.719 7.18896 212.817 7.40869C213.916 7.62028 214.872 7.92139 215.686 8.31201C216.508 8.70264 217.159 9.17057 217.639 9.71582C218.119 10.2529 218.359 10.847 218.359 11.498V13.6465H215.137V12.4502C215.137 12.1003 215.002 11.7666 214.734 11.4492C214.465 11.1237 214.079 10.8429 213.574 10.6069C213.078 10.3628 212.472 10.1715 211.755 10.0332C211.039 9.88672 210.229 9.81348 209.326 9.81348C208.455 9.81348 207.662 9.88265 206.946 10.021C206.23 10.1512 205.615 10.3343 205.103 10.5703C204.59 10.8063 204.191 11.0871 203.906 11.4126C203.63 11.73 203.491 12.0758 203.491 12.4502V21.0684C203.491 21.4264 203.63 21.7642 203.906 22.0815C204.191 22.3989 204.59 22.6756 205.103 22.9116C205.615 23.1395 206.23 23.3226 206.946 23.4609C207.662 23.5911 208.455 23.6562 209.326 23.6562C210.229 23.6562 211.039 23.5871 211.755 23.4487C212.472 23.3022 213.078 23.111 213.574 22.875C214.079 22.639 214.465 22.3664 214.734 22.0571C215.002 21.7397 215.137 21.4102 215.137 21.0684V19.8477H218.359V21.9961C218.359 22.4274 218.25 22.8384 218.03 23.229C217.81 23.6115 217.501 23.9655 217.102 24.291C216.711 24.6165 216.239 24.9095 215.686 25.1699C215.141 25.4222 214.53 25.6419 213.855 25.8291C213.188 26.0081 212.472 26.1465 211.707 26.2441C210.942 26.3418 210.148 26.3906 209.326 26.3906C208.504 26.3906 207.711 26.3418 206.946 26.2441C206.181 26.1465 205.461 26.0081 204.785 25.8291C204.118 25.6419 203.507 25.4222 202.954 25.1699C202.409 24.9095 201.937 24.6165 201.538 24.291C201.147 23.9655 200.842 23.6115 200.623 23.229C200.403 22.8384 200.293 22.4274 200.293 21.9961V11.498C200.293 11.0667 200.403 10.6558 200.623 10.2651C200.842 9.87451 201.147 9.51644 201.538 9.19092C201.937 8.8654 202.409 8.57243 202.954 8.31201C203.507 8.0516 204.118 7.83187 204.785 7.65283C205.461 7.46566 206.181 7.32324 206.946 7.22559C207.711 7.12793 208.504 7.0791 209.326 7.0791ZM226.855 15.2822H235.059V7.61621C235.758 7.64062 236.418 7.68132 237.036 7.73828C237.655 7.79525 238.204 7.85628 238.684 7.92139C239.237 7.99463 239.754 8.07194 240.234 8.15332V11.2783C239.917 11.1807 239.567 11.0911 239.185 11.0098C238.802 10.9202 238.403 10.8389 237.988 10.7656V22.8506C238.883 22.7041 239.632 22.5332 240.234 22.3379V25.4385C239.648 25.5361 239.111 25.6175 238.623 25.6826C238.135 25.7477 237.683 25.8006 237.268 25.8413C236.853 25.882 236.462 25.9146 236.096 25.939C235.738 25.9634 235.392 25.9837 235.059 26V18.2363H226.855V26C226.522 25.9837 226.172 25.9634 225.806 25.939C225.448 25.9146 225.061 25.882 224.646 25.8413C224.231 25.8006 223.779 25.7477 223.291 25.6826C222.803 25.6175 222.266 25.5361 221.68 25.4385V22.3379C221.997 22.4355 222.339 22.5291 222.705 22.6187C223.079 22.7 223.486 22.7773 223.926 22.8506V10.7656C223.079 10.9121 222.331 11.083 221.68 11.2783V8.15332C222.144 8.07194 222.656 7.99463 223.218 7.92139C223.69 7.85628 224.239 7.79525 224.866 7.73828C225.492 7.68132 226.156 7.64062 226.855 7.61621V15.2822Z" fill="white"/>
</svg>
