<svg width="22" height="15" viewBox="0 0 22 15" fill="none" xmlns="http://www.w3.org/2000/svg">
<path d="M20.5833 0.0118291H0V2.1785H2.49167L6.045 11.9285C6.26851 12.5607 6.68208 13.1082 7.22901 13.4961C7.77595 13.884 8.42948 14.0933 9.1 14.0952H18.4167V11.9285H9.1C8.87736 11.9284 8.66016 11.8597 8.47794 11.7318C8.29573 11.6038 8.15736 11.4229 8.08167 11.2135L7.58333 9.76183H17.6367C18.1069 9.76115 18.5641 9.60753 18.9393 9.32417C19.3145 9.0408 19.5874 8.64306 19.7167 8.191L21.6667 1.38766C21.7107 1.2454 21.7249 1.09559 21.7085 0.947585C21.692 0.799578 21.6452 0.656553 21.571 0.527443C21.4968 0.398333 21.3968 0.28591 21.2771 0.197195C21.1575 0.10848 21.0209 0.0453775 20.8758 0.0118291C20.779 -0.00394304 20.6802 -0.00394304 20.5833 0.0118291ZM17.6042 7.59516H6.77083L4.79917 2.1785H19.1425L17.6042 7.59516Z" fill="#5E6775"/>
</svg>
