<svg width="21" height="20" viewBox="0 0 21 20" fill="none" xmlns="http://www.w3.org/2000/svg">
<g clip-path="url(#clip0_1_369)">
<path d="M14.4827 3.33325C14.0253 3.33325 13.6545 3.70635 13.6545 4.16659C13.6545 4.62682 14.0253 4.99992 14.4827 4.99992H17.7953C18.2527 4.99992 18.6235 4.62682 18.6235 4.16659C18.6235 3.70635 18.2527 3.33325 17.7953 3.33325H14.4827Z" fill="white"/>
<path fill-rule="evenodd" clip-rule="evenodd" d="M11.9983 10.8334C11.9983 8.53225 13.8522 6.66675 16.1391 6.66675C18.426 6.66675 20.2799 8.53225 20.2799 10.8334V11.6667C20.2799 12.127 19.9091 12.5001 19.4517 12.5001H13.6546C13.6546 13.8808 14.7669 15.0001 16.1391 15.0001C16.7167 15.0001 17.2482 14.8017 17.6702 14.4691C17.8905 14.2952 18.1509 14.1667 18.431 14.1667C19.1407 14.1667 19.5947 14.9043 19.0982 15.4147C18.3466 16.1872 17.2985 16.6667 16.1391 16.6667C13.8522 16.6667 11.9983 14.8012 11.9983 12.5001V10.8334ZM16.1391 8.33341C14.7669 8.33341 13.6546 9.45266 13.6546 10.8334H18.6235C18.6235 9.45266 17.5113 8.33341 16.1391 8.33341Z" fill="white"/>
<path fill-rule="evenodd" clip-rule="evenodd" d="M2.06037 4.99992V8.33325H6.20115C7.11591 8.33325 7.85747 7.58706 7.85747 6.66659C7.85747 5.74611 7.11591 4.99992 6.20115 4.99992H2.06037ZM8.51981 9.04725C9.13325 8.44225 9.51378 7.59914 9.51378 6.66659C9.51378 4.82564 8.03067 3.33325 6.20115 3.33325H1.7291C0.997298 3.33325 0.404053 3.93021 0.404053 4.66659V15.238C0.404053 16.027 1.03967 16.6666 1.82375 16.6666H6.20115C8.48804 16.6666 10.3419 14.8011 10.3419 12.4999C10.3419 11.0632 9.61929 9.79634 8.51981 9.04725ZM2.06037 9.99992V14.9999H6.20115C7.57329 14.9999 8.68563 13.8807 8.68563 12.4999C8.68563 11.1192 7.57329 9.99992 6.20115 9.99992H2.06037Z" fill="white"/>
</g>
<defs>
<clipPath id="clip0_1_369">
<rect width="19.8758" height="20" fill="white" transform="translate(0.404053)"/>
</clipPath>
</defs>
</svg>
