<svg width="20" height="20" viewBox="0 0 20 20" fill="none" xmlns="http://www.w3.org/2000/svg">
<path fill-rule="evenodd" clip-rule="evenodd" d="M10.0189 16.6667C13.6779 16.6667 16.6441 13.682 16.6441 10.0001C16.6441 6.31818 13.6779 3.33341 10.0189 3.33341C6.35985 3.33341 3.39362 6.31818 3.39362 10.0001C3.39362 13.682 6.35985 16.6667 10.0189 16.6667ZM10.0189 18.3334C14.5926 18.3334 18.3005 14.6024 18.3005 10.0001C18.3005 5.39771 14.5926 1.66675 10.0189 1.66675C5.44509 1.66675 1.7373 5.39771 1.7373 10.0001C1.7373 14.6024 5.44509 18.3334 10.0189 18.3334Z" fill="white"/>
<path d="M12.8961 17.8167C12.602 15.7082 12.112 13.7946 11.4224 11.9858C9.73441 12.8093 7.84637 14.2482 5.2503 16.8141C4.79609 16.4916 4.37556 16.1244 3.99506 15.7187C6.72165 13.013 8.80414 11.3954 10.7776 10.4486C10.5244 9.89637 10.2514 9.35196 9.95842 8.81254C7.63504 9.54937 4.9859 9.93762 1.7373 9.99312C1.73776 9.42112 1.79551 8.86254 1.90507 8.32293C4.7721 8.26112 7.09136 7.92722 9.09871 7.33376C8.16697 5.82934 7.07491 4.34437 5.81987 2.81576C6.30924 2.52552 6.83085 2.28447 7.378 2.09937C8.64447 3.66567 9.75412 5.2051 10.7043 6.77942C12.4896 6.06937 14.072 5.11107 15.6515 3.89098C16.0576 4.27018 16.4257 4.68987 16.7496 5.14364C15.1067 6.42239 13.4313 7.45881 11.5337 8.24011C11.813 8.76487 12.0749 9.29546 12.3197 9.83396C14.1968 9.23554 16.0445 9.17371 18.2596 9.16737C18.2866 9.44121 18.3005 9.71904 18.3005 10C18.3005 10.2816 18.2865 10.56 18.2595 10.8344C16.1193 10.842 14.532 10.9027 12.9646 11.3775C13.6376 13.1405 14.1355 15.0042 14.4552 17.0381C13.9677 17.3499 13.4456 17.6118 12.8961 17.8167Z" fill="white"/>
</svg>
