<svg width="21" height="20" viewBox="0 0 21 20" fill="none" xmlns="http://www.w3.org/2000/svg">
<path fill-rule="evenodd" clip-rule="evenodd" d="M10.3109 16.6667C13.9699 16.6667 16.9361 13.682 16.9361 10.0001C16.9361 6.31818 13.9699 3.33341 10.3109 3.33341C6.65184 3.33341 3.68561 6.31818 3.68561 10.0001C3.68561 13.682 6.65184 16.6667 10.3109 16.6667ZM10.3109 18.3334C14.8846 18.3334 18.5924 14.6024 18.5924 10.0001C18.5924 5.39771 14.8846 1.66675 10.3109 1.66675C5.73708 1.66675 2.0293 5.39771 2.0293 10.0001C2.0293 14.6024 5.73708 18.3334 10.3109 18.3334Z" fill="white"/>
<path d="M10.3109 8.33325C10.3109 7.87302 10.6817 7.49992 11.1391 7.49992H11.9672C12.4246 7.49992 12.7954 7.12683 12.7954 6.66659C12.7954 6.20635 12.4246 5.83325 11.9672 5.83325H11.1391C9.7669 5.83325 8.65461 6.95254 8.65461 8.33325V9.99992H7.82645C7.36907 9.99992 6.99829 10.373 6.99829 10.8333C6.99829 11.2935 7.36907 11.6666 7.82645 11.6666H8.65461V16.6666C8.65461 17.1268 9.02537 17.4999 9.48276 17.4999C9.94015 17.4999 10.3109 17.1268 10.3109 16.6666V11.6666H11.9672C12.4246 11.6666 12.7954 11.2935 12.7954 10.8333C12.7954 10.373 12.4246 9.99992 11.9672 9.99992H10.3109V8.33325Z" fill="white"/>
</svg>
