<svg width="15" height="20" viewBox="0 0 15 20" fill="none" xmlns="http://www.w3.org/2000/svg">
<path d="M7.77358 0.622559C4.00757 0.622559 0.941896 3.7074 0.941895 7.49694C0.941892 14.1649 7.38844 19.2341 7.38844 19.2341C7.49848 19.3225 7.63509 19.3706 7.77587 19.3706C7.91666 19.3706 8.05326 19.3225 8.16331 19.2341C8.16331 19.2341 14.6099 14.1649 14.6099 7.49694C14.6098 3.7074 11.5396 0.622559 7.77358 0.622559ZM7.77358 1.87287C10.8682 1.87287 13.3673 4.38294 13.3673 7.49694C13.3673 12.9519 8.45848 17.2617 7.77817 17.8454C7.1011 17.2646 2.18443 12.954 2.18444 7.49694C2.18444 4.38294 4.67892 1.87287 7.77358 1.87287Z" fill="white"/>
<path d="M7.7735 4.37354C6.06569 4.37354 4.66944 5.77852 4.66943 7.497C4.66942 9.2155 6.06567 10.6251 7.7735 10.6251C9.48132 10.6251 10.8822 9.2155 10.8821 7.497C10.8821 5.77852 9.4813 4.37354 7.7735 4.37354ZM7.7735 5.62384C8.80995 5.62384 9.6396 6.45406 9.6396 7.497C9.63961 8.53993 8.80996 9.37476 7.7735 9.37476C6.73703 9.37476 5.91197 8.53993 5.91198 7.497C5.91198 6.45406 6.73704 5.62384 7.7735 5.62384Z" fill="white"/>
</svg>
