<svg width="21" height="20" viewBox="0 0 21 20" fill="none" xmlns="http://www.w3.org/2000/svg">
<path fill-rule="evenodd" clip-rule="evenodd" d="M13.9775 3.33341H7.35224C5.52273 3.33341 4.03962 4.8258 4.03962 6.66675V13.3334C4.03962 15.1743 5.52273 16.6667 7.35224 16.6667H13.9775C15.807 16.6667 17.2901 15.1743 17.2901 13.3334V6.66675C17.2901 4.8258 15.807 3.33341 13.9775 3.33341ZM7.35224 1.66675C4.60797 1.66675 2.3833 3.90532 2.3833 6.66675V13.3334C2.3833 16.0948 4.60797 18.3334 7.35224 18.3334H13.9775C16.7218 18.3334 18.9464 16.0948 18.9464 13.3334V6.66675C18.9464 3.90532 16.7218 1.66675 13.9775 1.66675H7.35224Z" fill="white"/>
<path d="M14.8057 6.66667C15.2631 6.66667 15.6339 6.29357 15.6339 5.83333C15.6339 5.3731 15.2631 5 14.8057 5C14.3483 5 13.9775 5.3731 13.9775 5.83333C13.9775 6.29357 14.3483 6.66667 14.8057 6.66667Z" fill="white"/>
<path fill-rule="evenodd" clip-rule="evenodd" d="M14.8057 9.99992C14.8057 12.3011 12.9518 14.1666 10.665 14.1666C8.37807 14.1666 6.52417 12.3011 6.52417 9.99992C6.52417 7.69874 8.37807 5.83325 10.665 5.83325C12.9518 5.83325 14.8057 7.69874 14.8057 9.99992ZM13.1494 9.99992C13.1494 11.3807 12.0371 12.4999 10.665 12.4999C9.29278 12.4999 8.18048 11.3807 8.18048 9.99992C8.18048 8.61917 9.29278 7.49992 10.665 7.49992C12.0371 7.49992 13.1494 8.61917 13.1494 9.99992Z" fill="white"/>
</svg>
