<svg width="168" height="20" viewBox="0 0 168 20" fill="none" xmlns="http://www.w3.org/2000/svg">
<path d="M5.54102 5.03516C5.46777 5.61296 5.40267 6.19076 5.3457 6.76855C5.29688 7.34635 5.27246 7.94857 5.27246 8.5752C5.27246 9.32389 5.30501 10.0645 5.37012 10.7969C5.43522 11.5293 5.57357 12.2332 5.78516 12.9087C6.00488 13.576 6.3182 14.2108 6.7251 14.813C7.14014 15.4152 7.69759 15.9645 8.39746 16.4609C8.79622 16.2087 9.11361 15.9035 9.34961 15.5454C9.59375 15.1792 9.78499 14.7886 9.92334 14.3735C10.0617 13.9585 10.1593 13.5353 10.2163 13.104C10.2814 12.6727 10.3343 12.2536 10.375 11.8467V8.86816H12.8164V11.8467C12.849 12.2536 12.8978 12.6727 12.9629 13.104C13.028 13.5353 13.1297 13.9585 13.2681 14.3735C13.4064 14.7886 13.5936 15.1792 13.8296 15.5454C14.0737 15.9035 14.387 16.2087 14.7695 16.4609C15.4694 15.9645 16.0269 15.4152 16.4419 14.813C16.8569 14.2108 17.1743 13.576 17.394 12.9087C17.6138 12.2332 17.7562 11.5293 17.8213 10.7969C17.8864 10.0645 17.9189 9.32389 17.9189 8.5752C17.9189 7.94857 17.8905 7.34635 17.8335 6.76855C17.7847 6.19076 17.7155 5.61296 17.626 5.03516C18.3665 5.07585 19.0216 5.12874 19.5913 5.19385C20.161 5.25895 20.6452 5.32406 21.0439 5.38916C21.5078 5.4624 21.9147 5.53971 22.2646 5.62109V8.45312C22.0531 8.33919 21.8496 8.25374 21.6543 8.19678C21.4671 8.13167 21.3003 8.08285 21.1538 8.05029C20.9829 8.01774 20.8242 7.9974 20.6777 7.98926C20.6777 9.16927 20.6248 10.2272 20.519 11.1631C20.4132 12.0908 20.2546 12.925 20.043 13.6655C19.8314 14.4061 19.5628 15.0653 19.2373 15.6431C18.9199 16.2209 18.5415 16.7458 18.1021 17.2178C17.6626 17.6816 17.1662 18.1089 16.6128 18.4995C16.0594 18.8901 15.445 19.2686 14.7695 19.6348C13.9964 19.1953 13.3576 18.703 12.853 18.1577C12.3485 17.6125 11.9294 16.9899 11.5957 16.29C11.2783 16.9899 10.8633 17.6125 10.3506 18.1577C9.84603 18.703 9.19499 19.1953 8.39746 19.6348C7.73014 19.2686 7.11979 18.8901 6.56641 18.4995C6.02116 18.1089 5.52881 17.6816 5.08936 17.2178C4.65804 16.7458 4.28369 16.2209 3.96631 15.6431C3.64893 15.0653 3.38444 14.4061 3.17285 13.6655C2.96126 12.925 2.80257 12.0908 2.69678 11.1631C2.59098 10.2272 2.53809 9.16927 2.53809 7.98926C2.38346 7.9974 2.2207 8.01774 2.0498 8.05029C1.89518 8.08285 1.72021 8.13167 1.5249 8.19678C1.32959 8.25374 1.12207 8.33919 0.902344 8.45312V5.62109C1.25228 5.53971 1.66325 5.4624 2.13525 5.38916C2.53402 5.32406 3.01823 5.25895 3.58789 5.19385C4.16569 5.12874 4.81673 5.07585 5.54102 5.03516ZM33.8857 5.08398C34.3008 5.08398 34.8013 5.10433 35.3872 5.14502C35.9731 5.18571 36.5794 5.25895 37.2061 5.36475C37.8408 5.4624 38.4674 5.60482 39.0859 5.79199C39.7044 5.97103 40.2578 6.20296 40.7461 6.48779C41.2425 6.77262 41.6413 7.11849 41.9424 7.52539C42.2516 7.92415 42.4062 8.39616 42.4062 8.94141V13.0674H28.417V16.1924C29.4017 16.3307 30.3498 16.4284 31.2612 16.4854C32.1727 16.5342 33.0475 16.5586 33.8857 16.5586C35.1634 16.5586 36.319 16.5098 37.3525 16.4121C38.3942 16.3145 39.2935 16.2046 40.0503 16.0825C40.9211 15.9442 41.7064 15.7855 42.4062 15.6064V18.3164C40.86 18.5605 39.3667 18.7355 37.9263 18.8413C36.494 18.9471 35.1471 19 33.8857 19C32.6162 19 31.4647 18.9674 30.4312 18.9023C29.3976 18.8291 28.5106 18.7477 27.77 18.6582C26.9074 18.5605 26.1302 18.4466 25.4385 18.3164V8.94141C25.4385 8.39616 25.5728 7.92415 25.8413 7.52539C26.1099 7.11849 26.4679 6.77262 26.9155 6.48779C27.3631 6.20296 27.8758 5.97103 28.4536 5.79199C29.0396 5.60482 29.6458 5.4624 30.2725 5.36475C30.8991 5.25895 31.5216 5.18571 32.1401 5.14502C32.7668 5.10433 33.3486 5.08398 33.8857 5.08398ZM28.417 11.1143H39.3789V9.69824C39.3789 9.36458 39.2975 9.07975 39.1348 8.84375C38.972 8.59961 38.7523 8.39616 38.4756 8.2334C38.207 8.07064 37.8896 7.94043 37.5234 7.84277C37.1654 7.73698 36.791 7.65967 36.4004 7.61084C36.0098 7.55387 35.6151 7.51725 35.2163 7.50098C34.8257 7.4847 34.4554 7.47656 34.1055 7.47656C33.7393 7.47656 33.3446 7.4847 32.9214 7.50098C32.5063 7.51725 32.0872 7.55387 31.6641 7.61084C31.2409 7.66781 30.834 7.74919 30.4434 7.85498C30.0527 7.95264 29.7069 8.08691 29.4058 8.25781C29.1047 8.42057 28.8646 8.62402 28.6855 8.86816C28.5065 9.10417 28.417 9.389 28.417 9.72266V11.1143ZM53.9785 5.08398C55.2318 5.08398 56.3507 5.1735 57.3354 5.35254C58.3283 5.52344 59.1624 5.79199 59.8379 6.1582C60.5215 6.52441 61.0423 6.98828 61.4004 7.5498C61.7585 8.11133 61.9375 8.77865 61.9375 9.55176V14.5322C61.9375 15.3053 61.7585 15.9727 61.4004 16.5342C61.0423 17.0957 60.5215 17.5596 59.8379 17.9258C59.1624 18.292 58.3283 18.5646 57.3354 18.7437C56.3507 18.9146 55.2318 19 53.9785 19C53.2786 19 52.5625 18.9756 51.8301 18.9268C51.0977 18.8698 50.3896 18.8006 49.7061 18.7192C49.0225 18.6297 48.3796 18.528 47.7773 18.4141C47.1751 18.3001 46.6624 18.1781 46.2393 18.0479V0.420898H49.4375V5.96289C50.1618 5.70247 50.9186 5.49089 51.708 5.32812C52.5055 5.16536 53.2624 5.08398 53.9785 5.08398ZM53.0996 7.35449C52.6764 7.35449 52.2899 7.38298 51.9399 7.43994C51.59 7.49691 51.2645 7.57015 50.9634 7.65967C50.6704 7.74919 50.3978 7.85091 50.1455 7.96484C49.8932 8.07064 49.6572 8.17643 49.4375 8.28223V15.9727C49.6572 16.0459 49.9095 16.1191 50.1943 16.1924C50.4792 16.2575 50.7803 16.3185 51.0977 16.3755C51.4232 16.4325 51.7528 16.4772 52.0864 16.5098C52.4282 16.5423 52.766 16.5586 53.0996 16.5586C53.6042 16.5586 54.0965 16.5545 54.5767 16.5464C55.0568 16.5301 55.5044 16.4935 55.9194 16.4365C56.3345 16.3796 56.7129 16.2941 57.0547 16.1802C57.4046 16.0662 57.7017 15.9076 57.9458 15.7041C58.1981 15.4925 58.3934 15.2362 58.5317 14.9351C58.6701 14.6258 58.7393 14.2474 58.7393 13.7998V10.2109C58.7393 9.56803 58.5887 9.05941 58.2876 8.68506C57.9865 8.30257 57.5796 8.01367 57.0669 7.81836C56.5542 7.62305 55.9561 7.49691 55.2725 7.43994C54.5889 7.38298 53.8646 7.35449 53.0996 7.35449ZM74.2178 5.08398C75.471 5.08398 76.5452 5.18978 77.4404 5.40137C78.3356 5.60482 79.068 5.91406 79.6377 6.3291C80.2155 6.736 80.6346 7.24463 80.895 7.85498C81.1636 8.46533 81.2979 9.17741 81.2979 9.99121V19H78.0996V10.748C78.0996 10.2923 78.0386 9.90169 77.9165 9.57617C77.7944 9.24251 77.6276 8.96175 77.416 8.73389C77.2126 8.49788 76.9725 8.30664 76.6958 8.16016C76.4191 8.01367 76.1302 7.90381 75.8291 7.83057C75.5361 7.74919 75.235 7.69629 74.9258 7.67188C74.6165 7.63932 74.3236 7.62305 74.0469 7.62305C73.526 7.62305 73.0296 7.65967 72.5576 7.73291C72.0856 7.80615 71.638 7.90788 71.2148 8.03809C70.7917 8.16016 70.3929 8.30664 70.0186 8.47754C69.6442 8.64844 69.2943 8.82747 68.9688 9.01465V19H65.7705V0.420898H68.9688V6.69531C69.3431 6.46745 69.7256 6.25586 70.1162 6.06055C70.5068 5.86523 70.9137 5.69434 71.3369 5.54785C71.7682 5.40137 72.2199 5.28743 72.6919 5.20605C73.172 5.12467 73.6807 5.08398 74.2178 5.08398ZM87.9385 14.5811C87.9385 14.9554 88.0728 15.2687 88.3413 15.521C88.618 15.7733 88.9842 15.9808 89.4399 16.1436C89.9038 16.2982 90.4368 16.4121 91.0391 16.4854C91.6413 16.5505 92.2679 16.583 92.9189 16.583C93.6025 16.583 94.2454 16.5464 94.8477 16.4731C95.4499 16.3918 95.9748 16.2738 96.4224 16.1191C96.87 15.9564 97.224 15.7489 97.4844 15.4966C97.7448 15.2443 97.875 14.9391 97.875 14.5811V5.08398L101.122 5.32812V15.3623C101.122 15.8018 101.012 16.2046 100.792 16.5708C100.581 16.937 100.284 17.2666 99.9014 17.5596C99.5189 17.8444 99.0672 18.0926 98.5464 18.3042C98.0256 18.5158 97.46 18.6908 96.8496 18.8291C96.2474 18.9674 95.6086 19.0692 94.9331 19.1343C94.2658 19.2075 93.5944 19.2441 92.9189 19.2441C92.2354 19.2441 91.5599 19.2075 90.8926 19.1343C90.2253 19.0692 89.5864 18.9674 88.9761 18.8291C88.3739 18.6908 87.8123 18.5158 87.2915 18.3042C86.7707 18.0926 86.319 17.8444 85.9365 17.5596C85.554 17.2666 85.2529 16.9411 85.0332 16.583C84.8216 16.2168 84.7158 15.8099 84.7158 15.3623V5.32812L87.9385 5.08398V14.5811ZM112.743 5.08398C113.996 5.08398 115.115 5.1735 116.1 5.35254C117.093 5.52344 117.927 5.79199 118.603 6.1582C119.286 6.52441 119.807 6.98828 120.165 7.5498C120.523 8.11133 120.702 8.77865 120.702 9.55176V14.5322C120.702 15.3053 120.523 15.9727 120.165 16.5342C119.807 17.0957 119.286 17.5596 118.603 17.9258C117.927 18.292 117.093 18.5646 116.1 18.7437C115.115 18.9146 113.996 19 112.743 19C112.043 19 111.327 18.9756 110.595 18.9268C109.862 18.8698 109.154 18.8006 108.471 18.7192C107.787 18.6297 107.144 18.528 106.542 18.4141C105.94 18.3001 105.427 18.1781 105.004 18.0479V0.420898H108.202V5.96289C108.926 5.70247 109.683 5.49089 110.473 5.32812C111.27 5.16536 112.027 5.08398 112.743 5.08398ZM111.864 7.35449C111.441 7.35449 111.055 7.38298 110.705 7.43994C110.355 7.49691 110.029 7.57015 109.728 7.65967C109.435 7.74919 109.162 7.85091 108.91 7.96484C108.658 8.07064 108.422 8.17643 108.202 8.28223V15.9727C108.422 16.0459 108.674 16.1191 108.959 16.1924C109.244 16.2575 109.545 16.3185 109.862 16.3755C110.188 16.4325 110.517 16.4772 110.851 16.5098C111.193 16.5423 111.531 16.5586 111.864 16.5586C112.369 16.5586 112.861 16.5545 113.341 16.5464C113.821 16.5301 114.269 16.4935 114.684 16.4365C115.099 16.3796 115.478 16.2941 115.819 16.1802C116.169 16.0662 116.466 15.9076 116.71 15.7041C116.963 15.4925 117.158 15.2362 117.296 14.9351C117.435 14.6258 117.504 14.2474 117.504 13.7998V10.2109C117.504 9.56803 117.353 9.05941 117.052 8.68506C116.751 8.30257 116.344 8.01367 115.832 7.81836C115.319 7.62305 114.721 7.49691 114.037 7.43994C113.354 7.38298 112.629 7.35449 111.864 7.35449ZM126.903 14.8984C127.196 14.8984 127.485 14.9229 127.77 14.9717C128.063 15.0205 128.323 15.0938 128.551 15.1914C128.779 15.2891 128.962 15.4152 129.101 15.5698C129.247 15.7244 129.32 15.9076 129.32 16.1191V17.9014C129.32 18.0967 129.247 18.2635 129.101 18.4019C128.962 18.5402 128.779 18.6541 128.551 18.7437C128.323 18.8332 128.063 18.8983 127.77 18.939C127.485 18.9797 127.196 19 126.903 19C126.61 19 126.321 18.9797 126.037 18.939C125.752 18.8983 125.495 18.8332 125.268 18.7437C125.04 18.6541 124.857 18.5402 124.718 18.4019C124.58 18.2635 124.511 18.0967 124.511 17.9014V16.1191C124.511 15.9076 124.58 15.7244 124.718 15.5698C124.857 15.4152 125.04 15.2891 125.268 15.1914C125.495 15.0938 125.752 15.0205 126.037 14.9717C126.321 14.9229 126.61 14.8984 126.903 14.8984ZM135.546 14.5811C135.546 14.9554 135.68 15.2687 135.949 15.521C136.225 15.7733 136.592 15.9808 137.047 16.1436C137.511 16.2982 138.044 16.4121 138.646 16.4854C139.249 16.5505 139.875 16.583 140.526 16.583C141.21 16.583 141.853 16.5464 142.455 16.4731C143.057 16.3918 143.582 16.2738 144.03 16.1191C144.477 15.9564 144.831 15.7489 145.092 15.4966C145.352 15.2443 145.482 14.9391 145.482 14.5811V5.08398L148.729 5.32812V15.3623C148.729 15.8018 148.62 16.2046 148.4 16.5708C148.188 16.937 147.891 17.2666 147.509 17.5596C147.126 17.8444 146.675 18.0926 146.154 18.3042C145.633 18.5158 145.067 18.6908 144.457 18.8291C143.855 18.9674 143.216 19.0692 142.541 19.1343C141.873 19.2075 141.202 19.2441 140.526 19.2441C139.843 19.2441 139.167 19.2075 138.5 19.1343C137.833 19.0692 137.194 18.9674 136.583 18.8291C135.981 18.6908 135.42 18.5158 134.899 18.3042C134.378 18.0926 133.926 17.8444 133.544 17.5596C133.161 17.2666 132.86 16.9411 132.641 16.583C132.429 16.2168 132.323 15.8099 132.323 15.3623V5.32812L135.546 5.08398V14.5811ZM159.936 5.08398C160.969 5.08398 161.933 5.11654 162.829 5.18164C163.724 5.23861 164.513 5.29964 165.197 5.36475C165.986 5.45426 166.715 5.54785 167.382 5.64551V7.74512C167.064 8.1276 166.653 8.55892 166.149 9.03906C165.653 9.51107 165.095 10.0116 164.477 10.5405C163.866 11.0695 163.211 11.6147 162.511 12.1763C161.811 12.7297 161.091 13.2749 160.351 13.812C159.618 14.3491 158.882 14.87 158.141 15.3745C157.409 15.8791 156.705 16.3389 156.029 16.7539C156.29 16.7783 156.583 16.7987 156.908 16.8149C157.242 16.8231 157.551 16.8271 157.836 16.8271C158.414 16.8271 159.012 16.8149 159.63 16.7905C160.249 16.7661 160.859 16.7336 161.461 16.6929C162.064 16.644 162.65 16.5911 163.219 16.5342C163.789 16.4691 164.314 16.404 164.794 16.3389C164.826 16.111 164.859 15.8791 164.892 15.6431C164.924 15.4071 164.953 15.1873 164.977 14.9839C165.001 14.7723 165.022 14.5811 165.038 14.4102C165.054 14.2311 165.062 14.0846 165.062 13.9707H167.87C167.87 14.0684 167.862 14.2189 167.846 14.4224C167.838 14.6258 167.821 14.8618 167.797 15.1304C167.772 15.3989 167.744 15.6878 167.711 15.9971C167.687 16.3063 167.654 16.6115 167.614 16.9126C167.581 17.2137 167.545 17.5026 167.504 17.7793C167.463 18.0479 167.423 18.2757 167.382 18.4629C166.755 18.5605 166.108 18.646 165.441 18.7192C164.782 18.7843 164.127 18.8372 163.476 18.8779C162.825 18.9186 162.194 18.9512 161.583 18.9756C160.973 18.9919 160.416 19 159.911 19C158.886 19 157.925 18.9715 157.03 18.9146C156.135 18.8576 155.346 18.7965 154.662 18.7314C153.865 18.6501 153.132 18.5605 152.465 18.4629V16.0947C153.507 15.4925 154.573 14.8415 155.663 14.1416C156.754 13.4417 157.824 12.7215 158.874 11.981C159.923 11.2323 160.928 10.4714 161.889 9.69824C162.849 8.92513 163.72 8.16016 164.501 7.40332C163.646 7.30566 162.735 7.25684 161.767 7.25684C161.213 7.25684 160.648 7.26904 160.07 7.29346C159.5 7.31787 158.935 7.35042 158.373 7.39111C157.812 7.4318 157.266 7.48063 156.737 7.5376C156.216 7.59456 155.728 7.6556 155.272 7.7207C155.232 7.95671 155.195 8.19678 155.163 8.44092C155.13 8.67692 155.097 8.90479 155.065 9.12451C155.041 9.34424 155.02 9.54769 155.004 9.73486C154.988 9.9139 154.979 10.0645 154.979 10.1865H152.196C152.196 10.04 152.208 9.77555 152.233 9.39307C152.265 9.01058 152.306 8.59147 152.355 8.13574C152.404 7.67188 152.453 7.21208 152.501 6.75635C152.558 6.30062 152.611 5.93034 152.66 5.64551C153.287 5.53971 153.926 5.45426 154.577 5.38916C155.228 5.31592 155.867 5.25895 156.493 5.21826C157.12 5.16943 157.722 5.13688 158.3 5.12061C158.886 5.09619 159.431 5.08398 159.936 5.08398Z" fill="white"/>
</svg>
