<svg width="20" height="21" viewBox="0 0 20 21" fill="none" xmlns="http://www.w3.org/2000/svg">
<g id="Icon" clip-path="url(#clip0_1_89)">
<path id="Vector" d="M16.4276 17.2033L14.0943 14.8033C14.9831 13.7366 15.5387 12.5366 15.7609 11.2033C15.9831 9.86994 15.872 8.55883 15.4276 7.26994C14.9831 5.98105 14.2498 4.86994 13.2276 3.9366C12.2054 3.00327 11.0276 2.39216 9.69425 2.10327C8.36092 1.81438 7.0387 1.84772 5.72759 2.20327C4.41648 2.55883 3.27203 3.22549 2.29425 4.20327C1.31648 5.18105 0.649808 6.32549 0.294253 7.6366C-0.0613027 8.94772 -0.094636 10.2699 0.194253 11.6033C0.483142 12.9366 1.09425 14.1144 2.02759 15.1366C2.96092 16.1588 4.07203 16.8922 5.36092 17.3366C6.64981 17.781 7.96092 17.8922 9.29425 17.6699C10.6276 17.4477 11.8276 16.8922 12.8943 16.0033L15.2943 18.3366C15.4276 18.5144 15.6165 18.6033 15.8609 18.6033C16.1054 18.6033 16.3054 18.5255 16.4609 18.3699C16.6165 18.2144 16.6943 18.0144 16.6943 17.7699C16.6943 17.5255 16.6054 17.3366 16.4276 17.2033ZM1.69425 9.86994C1.69425 8.71438 1.97203 7.65883 2.52759 6.70327C3.08314 5.74771 3.8387 4.99216 4.79425 4.4366C5.74981 3.88105 6.79425 3.60327 7.92759 3.60327C9.06092 3.60327 10.1054 3.88105 11.0609 4.4366C12.0165 4.99216 12.7831 5.74771 13.3609 6.70327C13.9387 7.65883 14.2276 8.70327 14.2276 9.8366C14.2276 10.9699 13.9387 12.0144 13.3609 12.9699C12.7831 13.9255 12.0165 14.681 11.0609 15.2366C10.1054 15.7922 9.06092 16.0699 7.92759 16.0699C6.79425 16.0699 5.74981 15.7922 4.79425 15.2366C3.8387 14.681 3.08314 13.9255 2.52759 12.9699C1.97203 12.0144 1.69425 10.981 1.69425 9.86994Z" fill="white"/>
</g>
<defs>
<clipPath id="clip0_1_89">
<rect width="20" height="20" fill="white" transform="matrix(1 0 0 -1 0 20.27)"/>
</clipPath>
</defs>
</svg>
