<svg width="20" height="20" viewBox="0 0 20 20" fill="none" xmlns="http://www.w3.org/2000/svg">
<g clip-path="url(#clip0_1_367)">
<path fill-rule="evenodd" clip-rule="evenodd" d="M2.68423 11.6665C1.31468 11.6704 0.430613 13.2403 1.27434 14.4298C2.48264 16.133 4.67373 17.5 8.33172 17.5C14.0005 17.5 18.5509 12.8514 17.9139 7.35925L18.8472 5.48108C19.4944 4.17857 18.3697 2.69685 16.9506 2.98245L15.7176 3.23057C15.3908 3.05702 15.0525 2.92606 14.7634 2.83117C14.1999 2.64627 13.5179 2.5 12.8866 2.5C11.7526 2.5 10.7739 2.79276 9.99607 3.37994C9.22712 3.96053 8.794 4.72354 8.55632 5.42421C8.44675 5.74717 8.37379 6.07112 8.32698 6.38203C7.887 6.24269 7.43838 6.05522 6.99917 5.82629C6.00274 5.30693 5.19698 4.64852 4.74244 4.07126C3.97985 3.10275 2.36375 3.17456 1.79665 4.43351C0.99736 6.20789 1.21661 8.31122 1.93507 10.0108C2.17589 10.5803 2.48914 11.1434 2.87184 11.6652C2.80632 11.666 2.74365 11.6663 2.68423 11.6665ZM8.33164 15.8333C5.13218 15.8333 3.4778 14.6672 2.62235 13.4614C2.58392 13.4072 2.62268 13.3333 2.68882 13.3332C3.55908 13.3307 5.34542 13.2892 6.52355 12.5954C6.58448 12.5595 6.57107 12.4691 6.50416 12.4465C3.75785 11.5173 2.19675 7.58216 3.30514 5.12158C3.33055 5.06517 3.40592 5.05772 3.44415 5.10628C4.7103 6.71432 7.47866 8.28933 9.88725 8.33242C9.93951 8.33333 9.97901 8.28558 9.97106 8.23361C9.874 7.60044 9.5034 4.16667 12.8865 4.16667C13.6944 4.16667 14.8964 4.56319 15.3391 4.96942C15.3595 4.98819 15.3873 4.99672 15.4145 4.99125L17.2753 4.61675C17.3429 4.60315 17.3965 4.67371 17.3657 4.73573L16.2115 7.05849C16.2034 7.07462 16.201 7.09312 16.204 7.11088C17.0124 11.6833 13.2906 15.8333 8.33164 15.8333Z" fill="white"/>
</g>
<defs>
<clipPath id="clip0_1_367">
<rect width="19.8758" height="20" fill="white" transform="translate(0.0500488)"/>
</clipPath>
</defs>
</svg>
