<svg width="40" height="41" viewBox="0 0 40 41" fill="none" xmlns="http://www.w3.org/2000/svg">
<path d="M19.99 20.5C19.9011 20.5 19.8122 20.5 19.7233 20.5L3.85666 14.6333C3.5011 14.4556 3.32332 14.1889 3.32332 13.8333C3.32332 13.4778 3.5011 13.2111 3.85666 13.0333L14.6567 9.03333C14.9233 8.94444 15.1455 8.96667 15.3233 9.1C15.5011 9.23333 15.6344 9.38889 15.7233 9.56667C15.8122 9.74444 15.8122 9.94444 15.7233 10.1667C15.6344 10.3889 15.5011 10.5444 15.3233 10.6333L6.52332 13.8333L19.99 18.7667L33.4567 13.8333L24.6567 10.6333C24.4789 10.5444 24.3455 10.3889 24.2567 10.1667C24.1678 9.94444 24.1678 9.74444 24.2567 9.56667C24.3455 9.38889 24.4789 9.23333 24.6567 9.1C24.8344 8.96667 25.0567 8.94444 25.3233 9.03333L36.1233 13.0333C36.4789 13.2111 36.6567 13.4778 36.6567 13.8333C36.6567 14.1889 36.4789 14.4556 36.1233 14.6333L20.2567 20.5H19.99ZM19.99 40.5C19.9011 40.5 19.8122 40.5 19.7233 40.5L10.79 37.1667C10.6122 37.0778 10.4789 36.9444 10.39 36.7667C10.3011 36.5889 10.3011 36.3889 10.39 36.1667C10.4789 35.9444 10.6122 35.7889 10.79 35.7C10.9678 35.6111 11.19 35.5667 11.4567 35.5667L19.99 38.7667L28.5233 35.5667C28.79 35.5667 29.0122 35.6111 29.19 35.7C29.3678 35.7889 29.5011 35.9444 29.59 36.1667C29.6789 36.3889 29.6789 36.5889 29.59 36.7667C29.5011 36.9444 29.3678 37.0778 29.19 37.1667L20.2567 40.5H19.99ZM4.12332 30.1C3.94555 30.1 3.76777 30.0111 3.58999 29.8333C3.41221 29.6556 3.32332 29.4778 3.32332 29.3V13.8333C3.32332 13.5667 3.41221 13.3667 3.58999 13.2333C3.76777 13.1 3.96777 13.0333 4.18999 13.0333C4.41221 13.0333 4.61221 13.1 4.78999 13.2333C4.96777 13.3667 5.05666 13.5667 5.05666 13.8333V29.3C5.05666 29.4778 4.96777 29.6556 4.78999 29.8333C4.61221 30.0111 4.38999 30.1 4.12332 30.1ZM35.8567 30.1C35.59 30.1 35.3678 30.0111 35.19 29.8333C35.0122 29.6556 34.9233 29.4778 34.9233 29.3V13.8333C34.9233 13.5667 35.0122 13.3667 35.19 13.2333C35.3678 13.1 35.5678 13.0333 35.79 13.0333C36.0122 13.0333 36.2122 13.1 36.39 13.2333C36.5678 13.3667 36.6567 13.5667 36.6567 13.8333V29.3C36.6567 29.4778 36.5678 29.6556 36.39 29.8333C36.2122 30.0111 36.0344 30.1 35.8567 30.1ZM19.99 13.8333C19.7233 13.8333 19.5233 13.7444 19.39 13.5667C19.2567 13.3889 19.19 13.2111 19.19 13.0333V6.36666C19.19 6.1 19.2567 5.87778 19.39 5.7C19.5233 5.52222 19.7233 5.45555 19.99 5.5C20.2567 5.54444 20.4567 5.63333 20.59 5.76667C20.7233 5.9 20.79 6.1 20.79 6.36666V13.0333C20.79 13.2111 20.7233 13.3889 20.59 13.5667C20.4567 13.7444 20.2567 13.8333 19.99 13.8333ZM34.9233 36.2333C34.6567 36.2333 34.4344 36.1444 34.2567 35.9667L30.2567 31.9667C30.0789 31.7889 29.99 31.5889 29.99 31.3667C29.99 31.1444 30.0789 30.9444 30.2567 30.7667C30.4344 30.5889 30.6344 30.5 30.8567 30.5C31.0789 30.5 31.2789 30.5889 31.4567 30.7667L35.4567 34.7667C35.6344 34.9444 35.7233 35.1444 35.7233 35.3667C35.7233 35.5889 35.6344 35.7889 35.4567 35.9667C35.2789 36.1444 35.1011 36.2333 34.9233 36.2333ZM5.05666 36.2333C4.87888 36.2333 4.7011 36.1444 4.52332 35.9667C4.34555 35.7889 4.25666 35.5889 4.25666 35.3667C4.25666 35.1444 4.34555 34.9444 4.52332 34.7667L8.52332 30.7667C8.7011 30.5889 8.9011 30.5 9.12332 30.5C9.34555 30.5 9.54555 30.5889 9.72332 30.7667C9.9011 30.9444 9.98999 31.1444 9.98999 31.3667C9.98999 31.5889 9.9011 31.7889 9.72332 31.9667L5.72332 35.9667C5.54555 36.1444 5.32332 36.2333 5.05666 36.2333ZM19.99 40.5C19.7233 40.5 19.5233 40.4111 19.39 40.2333C19.2567 40.0556 19.19 39.8778 19.19 39.7V19.7C19.19 19.4333 19.2567 19.2111 19.39 19.0333C19.5233 18.8556 19.7233 18.7667 19.99 18.7667C20.2567 18.7667 20.4567 18.8556 20.59 19.0333C20.7233 19.2111 20.79 19.4333 20.79 19.7V39.7C20.79 39.8778 20.7233 40.0556 20.59 40.2333C20.4567 40.4111 20.2567 40.5 19.99 40.5ZM19.99 7.16666C19.1011 7.16666 18.3233 6.83333 17.6567 6.16666C16.99 5.5 16.6567 4.72222 16.6567 3.83333C16.6567 2.94444 16.99 2.16666 17.6567 1.5C18.3233 0.833332 19.1011 0.499996 19.99 0.499996C20.8789 0.499996 21.6567 0.833332 22.3233 1.5C22.99 2.16666 23.3233 2.94444 23.3233 3.83333C23.3233 4.72222 22.99 5.5 22.3233 6.16666C21.6567 6.83333 20.8789 7.16666 19.99 7.16666ZM19.99 2.1C19.5455 2.1 19.1678 2.27777 18.8567 2.63333C18.5455 2.98889 18.39 3.38889 18.39 3.83333C18.39 4.27777 18.5455 4.65555 18.8567 4.96666C19.1678 5.27777 19.5455 5.43333 19.99 5.43333C20.4344 5.43333 20.8344 5.27777 21.19 4.96666C21.5455 4.65555 21.7233 4.27777 21.7233 3.83333C21.7233 3.38889 21.5455 2.98889 21.19 2.63333C20.8344 2.27777 20.4344 2.1 19.99 2.1ZM36.6567 40.5C35.7678 40.5 34.99 40.1667 34.3233 39.5C33.6567 38.8333 33.3233 38.0556 33.3233 37.1667C33.3233 36.2778 33.6567 35.5 34.3233 34.8333C34.99 34.1667 35.7678 33.8333 36.6567 33.8333C37.5455 33.8333 38.3233 34.1667 38.99 34.8333C39.6567 35.5 39.99 36.2778 39.99 37.1667C39.99 38.0556 39.6567 38.8333 38.99 39.5C38.3233 40.1667 37.5455 40.5 36.6567 40.5ZM36.6567 35.4333C36.2122 35.4333 35.8122 35.6111 35.4567 35.9667C35.1011 36.3222 34.9455 36.7222 34.99 37.1667C35.0344 37.6111 35.2122 38.0111 35.5233 38.3667C35.8344 38.7222 36.2122 38.8778 36.6567 38.8333C37.1011 38.7889 37.5011 38.6111 37.8567 38.3C38.2122 37.9889 38.39 37.6111 38.39 37.1667C38.39 36.7222 38.2122 36.3222 37.8567 35.9667C37.5011 35.6111 37.1011 35.4333 36.6567 35.4333ZM3.32332 40.5C2.43443 40.5 1.65666 40.1667 0.98999 39.5C0.323324 38.8333 -0.0100098 38.0556 -0.0100098 37.1667C-0.0100098 36.2778 0.323324 35.5 0.98999 34.8333C1.65666 34.1667 2.43443 33.8333 3.32332 33.8333C4.21221 33.8333 4.98999 34.1667 5.65666 34.8333C6.32332 35.5 6.65666 36.2778 6.65666 37.1667C6.65666 38.0556 6.32332 38.8333 5.65666 39.5C4.98999 40.1667 4.21221 40.5 3.32332 40.5ZM3.32332 35.4333C2.87888 35.5222 2.47888 35.7222 2.12332 36.0333C1.76777 36.3444 1.61221 36.7222 1.65666 37.1667C1.7011 37.6111 1.87888 38.0111 2.18999 38.3667C2.5011 38.7222 2.87888 38.8778 3.32332 38.8333C3.76777 38.7889 4.16777 38.6111 4.52332 38.3C4.87888 37.9889 5.03443 37.6111 4.98999 37.1667C4.94555 36.7222 4.76777 36.3222 4.45666 35.9667C4.14555 35.6111 3.76777 35.4333 3.32332 35.4333Z" fill="white"/>
</svg>
