<svg width="80" height="72" viewBox="0 0 80 72" fill="none" xmlns="http://www.w3.org/2000/svg">
<path d="M78.4 57.3333H76.8V18.1333C76.8 15.8222 76.0444 13.9111 74.5333 12.4C73.0222 10.8889 71.2 10.1333 69.0667 10.1333H64.2667V6.4C64.2667 4.62222 63.6889 3.15556 62.5333 2C61.3778 0.844444 60 0.26667 58.4 0.26667H38.6667C36.8889 0.26667 35.4222 0.844444 34.2667 2C33.1111 3.15556 32.5333 4.62222 32.5333 6.4V10.1333H10.9333C8.8 10.1333 6.97778 10.8889 5.46667 12.4C3.95556 13.9111 3.2 15.8222 3.2 18.1333V57.3333H1.6C1.06667 57.3333 0.666667 57.5111 0.4 57.8667C0.133333 58.2222 0 58.5778 0 58.9333C0 62.4889 1.24444 65.5111 3.73333 68C6.22222 70.4889 9.24444 71.7333 12.8 71.7333H33.0667C33.4222 71.7333 33.7333 71.6 34 71.3333C34.2667 71.0667 34.4 70.7111 34.4 70.2667C34.4 69.8222 34.2667 69.4222 34 69.0667C33.7333 68.7111 33.4222 68.5333 33.0667 68.5333H12.8C10.4889 68.5333 8.4 67.7778 6.53333 66.2667C4.66667 64.7556 3.55556 62.8444 3.2 60.5333H76.8C76.4445 62.8444 75.3333 64.7556 73.4667 66.2667C71.6 67.7778 69.5111 68.5333 67.2 68.5333H46.9333C46.5778 68.5333 46.2667 68.7111 46 69.0667C45.7333 69.4222 45.6 69.8222 45.6 70.2667C45.6 70.7111 45.7333 71.0667 46 71.3333C46.2667 71.6 46.5778 71.7333 46.9333 71.7333H67.2C70.7556 71.7333 73.7778 70.4889 76.2667 68C78.7556 65.5111 80 62.4889 80 58.9333C80 58.5778 79.8667 58.2222 79.6 57.8667C79.3333 57.5111 78.9333 57.3333 78.4 57.3333ZM35.7333 6.4C35.7333 5.51111 36 4.8 36.5333 4.26667C37.0667 3.73334 37.7778 3.46667 38.6667 3.46667H58.4C59.1111 3.46667 59.7778 3.73334 60.4 4.26667C61.0222 4.8 61.3333 5.51111 61.3333 6.4V20.8C61.3333 21.5111 61.0222 22.1778 60.4 22.8C59.7778 23.4222 59.1111 23.7333 58.4 23.7333H43.7333C43.2 23.7333 42.8444 23.8222 42.6667 24L40 26.4V25.0667C40 24.7111 39.8667 24.4 39.6 24.1333C39.3333 23.8667 38.8889 23.7333 38.2667 23.7333C37.6444 23.7333 37.0667 23.4222 36.5333 22.8C36 22.1778 35.7333 21.5111 35.7333 20.8V6.4ZM6.13333 18.1333C6.13333 16.7111 6.62222 15.5556 7.6 14.6667C8.57778 13.7778 9.68889 13.3333 10.9333 13.3333H32.5333V16.5333H10.9333C10.5778 16.5333 10.2222 16.6667 9.86667 16.9333C9.51111 17.2 9.33333 17.6 9.33333 18.1333V57.3333H6.13333V18.1333ZM18.9333 57.3333V56.5333C18.9333 54.2222 19.7333 52.2222 21.3333 50.5333C22.9333 48.8444 24.8889 48 27.2 48H28V50.9333C28 51.4667 28.1333 51.8667 28.4 52.1333C28.6667 52.4 29.0222 52.5333 29.4667 52.5333C29.9111 52.5333 30.2667 52.4 30.5333 52.1333C30.8 51.8667 30.9333 51.4667 30.9333 50.9333V48H31.7333C34.0444 48 36 48.8444 37.6 50.5333C39.2 52.2222 40 54.2222 40 56.5333V57.3333H18.9333ZM33.6 40.8C33.6 41.8667 33.2 42.8 32.4 43.6C31.6 44.4 30.6222 44.8 29.4667 44.8C28.3111 44.8 27.3333 44.4 26.5333 43.6C25.7333 42.8 25.3333 41.8667 25.3333 40.8V39.7333C25.3333 38.6667 25.7333 37.7333 26.5333 36.9333C27.3333 36.1333 28.3111 35.7333 29.4667 35.7333C30.6222 35.7333 31.6 36.1333 32.4 36.9333C33.2 37.7333 33.6 38.6667 33.6 39.7333V40.8ZM43.2 57.3333V56.5333C43.2 53.8667 42.4444 51.5111 40.9333 49.4667C39.4222 47.4222 37.4222 46.0444 34.9333 45.3333C36 44.0889 36.5333 42.5778 36.5333 40.8V39.7333C36.5333 37.7778 35.8667 36.0889 34.5333 34.6667C33.2 33.2444 31.5111 32.5333 29.4667 32.5333C27.4222 32.5333 25.7333 33.2444 24.4 34.6667C23.0667 36.0889 22.4 37.7778 22.4 39.7333V40.8C22.4 42.5778 22.9333 44.0889 24 45.3333C21.5111 46.0444 19.5111 47.4222 18 49.4667C16.4889 51.5111 15.7333 53.8667 15.7333 56.5333V57.3333H12.5333V19.4667H32.5333V20.8C32.5333 22.0444 32.9333 23.2444 33.7333 24.4C34.5333 25.5556 35.6444 26.3111 37.0667 26.6667V30.4C37.0667 30.9333 37.3333 31.3778 37.8667 31.7333H38.6667C39.0222 31.7333 39.3778 31.6444 39.7333 31.4667L44.2667 26.6667H58.4C60 26.6667 61.3778 26.0889 62.5333 24.9333C63.6889 23.7778 64.2667 22.4 64.2667 20.8V19.4667H67.4667V57.3333H43.2ZM70.6667 57.3333V18.1333C70.6667 17.6 70.4889 17.2 70.1333 16.9333C69.7778 16.6667 69.4222 16.5333 69.0667 16.5333H64.2667V13.3333H69.0667C70.3111 13.3333 71.4222 13.7778 72.4 14.6667C73.3778 15.5556 73.8667 16.7111 73.8667 18.1333V57.3333H70.6667ZM43.4667 62.9333H36.5333C36.1778 62.9333 35.8222 63.1111 35.4667 63.4667C35.1111 63.8222 34.9333 64.2222 34.9333 64.6667C34.9333 65.1111 35.1111 65.4667 35.4667 65.7333C35.8222 66 36.1778 66.1333 36.5333 66.1333H43.4667C44 66.1333 44.4 66 44.6667 65.7333C44.9333 65.4667 45.0667 65.1111 45.0667 64.6667C45.0667 64.2222 44.9333 63.8222 44.6667 63.4667C44.4 63.1111 44 62.9333 43.4667 62.9333ZM44.8 19.4667C45.3333 19.8222 45.8667 20 46.4 20C46.9333 20 47.3778 19.8222 47.7333 19.4667L53.6 16C54.6667 15.4667 55.2 14.6222 55.2 13.4667C55.2 12.3111 54.6667 11.4667 53.6 10.9333L47.7333 7.46667C46.8444 6.93333 45.8667 6.93333 44.8 7.46667C43.7333 8 43.2 8.88889 43.2 10.1333V16.8C43.2 18.0444 43.7333 18.9333 44.8 19.4667ZM46.4 10.4L52 13.6L46.4 16.5333V10.4ZM40 68.5333C39.6444 68.5333 39.2889 68.7111 38.9333 69.0667C38.5778 69.4222 38.4 69.8222 38.4 70.2667C38.4 70.7111 38.5778 71.0667 38.9333 71.3333C39.2889 71.6 39.6444 71.7333 40 71.7333C40.3556 71.7333 40.7111 71.6 41.0667 71.3333C41.4222 71.0667 41.6 70.7111 41.6 70.2667C41.6 69.8222 41.4222 69.4222 41.0667 69.0667C40.7111 68.7111 40.3556 68.5333 40 68.5333Z" fill="white"/>
</svg>
