<svg width="18" height="18" viewBox="0 0 18 18" fill="none" xmlns="http://www.w3.org/2000/svg">
<path d="M16.9325 12.9992V15.3742C16.9334 15.5947 16.8882 15.813 16.7999 16.015C16.7116 16.217 16.582 16.3983 16.4196 16.5474C16.2571 16.6964 16.0653 16.8099 15.8564 16.8806C15.6476 16.9512 15.4263 16.9774 15.2067 16.9576C12.7706 16.6929 10.4305 15.8604 8.37459 14.5272C6.46178 13.3117 4.84006 11.69 3.62459 9.77716C2.28665 7.71186 1.45403 5.36045 1.19417 2.91341C1.17439 2.69449 1.2004 2.47385 1.27057 2.26553C1.34073 2.05721 1.4535 1.86579 1.60169 1.70344C1.74989 1.5411 1.93027 1.41139 2.13134 1.32257C2.33241 1.23376 2.54977 1.18778 2.76959 1.18758H5.14459C5.52879 1.1838 5.90126 1.31985 6.19256 1.57037C6.48387 1.8209 6.67415 2.16881 6.72792 2.54924C6.82816 3.3093 7.01407 4.05557 7.28209 4.77383C7.3886 5.05718 7.41165 5.36513 7.34851 5.66119C7.28537 5.95725 7.13869 6.229 6.92584 6.44424L5.92042 7.44966C7.0474 9.43163 8.68845 11.0727 10.6704 12.1997L11.6758 11.1942C11.8911 10.9814 12.1628 10.8347 12.4589 10.7716C12.7549 10.7084 13.0629 10.7315 13.3463 10.838C14.0645 11.106 14.8108 11.2919 15.5708 11.3922C15.9554 11.4464 16.3066 11.6401 16.5577 11.9364C16.8087 12.2327 16.9421 12.611 16.9325 12.9992Z" stroke="white" stroke-width="1.3" stroke-linecap="round" stroke-linejoin="round"/>
</svg>
